<?xml version="1.0" standalone="no"?>
<!DOCTYPE svg PUBLIC "-//W3C//DTD SVG 20010904//EN"
 "http://www.w3.org/TR/2001/REC-SVG-20010904/DTD/svg10.dtd">
<svg version="1.0" xmlns="http://www.w3.org/2000/svg"
 width="900.000000pt" height="900.000000pt" viewBox="0 0 900.000000 900.000000"
 preserveAspectRatio="xMidYMid meet">
<metadata>
Created by potrace 1.10, written by Peter Selinger 2001-2011
</metadata>
<g transform="translate(0.000000,900.000000) scale(0.100000,-0.100000)"
fill="#000000" stroke="none">
<path d="M4728 6451 c-131 -48 -234 -160 -265 -288 -5 -19 -13 -22 -101 -26
-54 -3 -119 -12 -147 -20 -27 -8 -75 -22 -105 -30 -30 -9 -80 -25 -110 -37
-30 -12 -64 -24 -75 -27 -27 -7 -272 -128 -310 -153 -16 -11 -39 -24 -50 -30
-11 -6 -32 -18 -47 -28 -15 -9 -59 -37 -98 -62 -39 -25 -83 -53 -98 -62 -15
-10 -37 -22 -49 -27 -11 -5 -24 -15 -28 -20 -9 -15 -53 -14 -106 3 -24 7 -73
21 -109 31 -36 9 -87 23 -115 30 -27 8 -79 21 -115 30 -36 9 -87 22 -115 30
-27 7 -81 20 -120 30 -38 9 -90 22 -115 30 -25 7 -58 16 -73 20 -20 4 -38 21
-59 55 -17 28 -33 50 -35 50 -2 0 -9 -13 -14 -30 -13 -34 -22 -36 -102 -15
-75 19 -79 19 -75 -7 2 -16 18 -26 68 -44 65 -22 65 -23 65 -61 0 -40 14 -46
46 -17 12 11 25 12 60 5 63 -14 129 -32 169 -46 19 -7 62 -20 95 -30 33 -9 74
-23 90 -30 17 -7 45 -16 62 -19 18 -4 35 -12 38 -17 4 -5 14 -9 25 -9 10 0 47
-13 82 -28 34 -16 74 -32 88 -35 14 -4 36 -15 49 -26 l24 -19 -24 -12 c-13 -7
-34 -25 -47 -41 -22 -27 -27 -29 -80 -23 -31 3 -91 12 -132 20 -155 31 -227
46 -282 60 -136 33 -186 46 -234 60 -28 8 -60 14 -71 14 -40 0 -99 33 -139 78
-45 51 -70 52 -76 5 -3 -27 -4 -28 -53 -24 -91 8 -109 7 -112 -9 -2 -11 15
-20 59 -33 90 -26 93 -29 90 -71 l-3 -37 33 17 c18 9 40 23 50 31 14 13 22 13
65 -1 26 -8 75 -22 108 -30 55 -13 88 -20 225 -47 25 -5 77 -18 115 -29 39
-12 84 -25 100 -30 40 -11 93 -30 130 -45 17 -7 43 -17 58 -24 34 -13 44 -36
25 -59 -13 -16 -53 -87 -68 -122 -4 -8 -13 -26 -20 -39 -29 -56 -50 -138 -50
-195 1 -60 27 -157 49 -179 6 -6 11 -16 11 -22 0 -18 79 -98 125 -127 39 -25
81 -40 195 -72 134 -36 308 -76 336 -76 11 0 48 -6 84 -15 36 -8 120 -22 188
-32 67 -9 122 -21 122 -25 0 -5 -10 -25 -23 -46 -13 -20 -33 -59 -46 -87 -12
-27 -29 -63 -38 -80 -51 -95 -97 -186 -113 -225 -30 -76 -80 -261 -80 -297 0
-12 -7 -34 -14 -50 -8 -15 -20 -49 -27 -75 -7 -31 -17 -48 -27 -48 -16 0 -74
59 -124 128 -34 45 -56 52 -88 25 -22 -19 -28 -81 -9 -100 21 -21 4 -47 -46
-72 l-50 -26 -5 -70 c-7 -81 -28 -155 -47 -162 -7 -3 -45 2 -84 11 -39 9 -86
16 -103 16 -17 0 -67 6 -111 14 -44 8 -134 22 -200 31 -66 9 -145 21 -175 27
-30 6 -86 14 -125 18 -38 5 -104 13 -145 20 -88 14 -215 33 -355 54 -55 8
-134 20 -175 26 -41 7 -109 16 -150 21 -41 4 -96 13 -122 20 -47 11 -48 10
-133 -41 -69 -42 -85 -56 -85 -75 0 -28 0 -28 135 -45 50 -6 131 -18 180 -25
223 -35 292 -45 325 -49 19 -2 69 -9 110 -15 41 -7 119 -19 173 -27 53 -8 141
-21 195 -29 53 -8 113 -16 132 -19 19 -2 69 -9 110 -15 41 -7 120 -19 175 -27
55 -8 139 -21 186 -29 47 -8 101 -15 120 -15 19 0 50 -5 69 -10 19 -6 71 -15
115 -20 44 -5 112 -14 150 -20 81 -12 223 -34 363 -54 53 -8 131 -20 172 -27
41 -6 104 -15 140 -19 36 -4 92 -12 125 -18 33 -6 114 -18 180 -27 66 -9 153
-23 193 -31 40 -8 87 -14 104 -14 17 0 70 -7 117 -15 82 -14 170 -27 389 -59
53 -8 131 -20 172 -27 41 -6 91 -13 110 -15 19 -3 79 -11 133 -19 53 -8 141
-21 195 -29 53 -8 131 -20 172 -27 41 -6 91 -13 110 -15 19 -3 79 -11 133 -19
53 -8 141 -22 195 -30 53 -8 113 -16 132 -19 19 -2 69 -9 110 -15 41 -7 119
-19 173 -27 187 -27 303 -45 392 -59 337 -54 307 -53 465 -15 128 31 341 144
324 171 -8 13 -39 11 -71 -5 -63 -31 -218 -57 -236 -39 -4 3 15 19 42 34 90
52 132 130 50 96 -123 -53 -335 -76 -535 -58 -141 12 -285 31 -429 57 -44 8
-93 14 -109 14 -15 0 -65 7 -110 15 -44 8 -128 22 -186 30 -58 9 -144 22 -191
30 -47 8 -98 15 -114 15 -15 0 -64 7 -109 15 -44 8 -126 21 -181 29 -55 9
-134 21 -175 27 -41 7 -102 15 -135 19 -33 4 -94 12 -135 19 -41 6 -120 18
-175 27 -55 8 -140 21 -190 29 -49 9 -103 16 -120 18 -25 2 -31 7 -38 39 -7
28 -19 43 -45 60 -21 12 -39 25 -42 28 -3 4 -57 53 -120 110 -144 130 -189
171 -209 190 -53 51 -160 140 -169 140 -5 0 -15 7 -22 15 -10 12 -3 34 38 117
58 120 81 171 134 298 8 19 22 51 30 70 9 19 30 71 48 115 18 44 36 89 41 100
24 53 49 166 49 223 0 44 8 81 25 124 14 34 25 69 25 78 0 9 6 25 14 35 12 17
15 14 40 -38 25 -55 94 -117 128 -117 7 0 33 -8 58 -16 38 -14 75 -15 230 -10
102 3 214 10 250 16 36 5 114 10 173 10 99 0 112 2 167 30 33 17 71 30 86 30
19 0 46 20 103 78 43 42 91 87 108 99 24 18 32 32 35 63 2 23 1 45 -2 49 -3 4
-27 11 -53 14 -27 4 -53 9 -58 13 -5 3 -9 26 -9 52 0 63 -10 77 -46 67 -16 -5
-67 -9 -114 -10 -167 -3 -163 -2 -229 -50 -66 -49 -93 -54 -140 -28 -29 17
-32 17 -67 -2 -48 -25 -111 -24 -155 2 -87 53 -117 67 -158 72 l-43 6 -54 104
c-54 103 -54 103 -54 195 0 113 7 126 52 107 18 -8 52 -16 76 -18 55 -6 77 13
98 83 16 56 19 58 121 71 53 6 73 34 77 106 4 64 29 122 69 160 25 24 28 33
22 60 -4 18 -7 40 -7 50 9 197 -26 302 -133 402 -51 48 -73 62 -158 99 -50 21
-176 20 -239 -3z"/>
</g>
</svg>
